<?xml version="1.0" standalone="no"?>
<!DOCTYPE svg PUBLIC "-//W3C//DTD SVG 20010904//EN"
 "http://www.w3.org/TR/2001/REC-SVG-20010904/DTD/svg10.dtd">
<svg version="1.0" xmlns="http://www.w3.org/2000/svg"
 width="626.000000pt" height="444.000000pt" viewBox="0 0 626.000000 444.000000"
 preserveAspectRatio="xMidYMid meet">

<g transform="translate(0.000000,444.000000) scale(0.100000,-0.100000)"
fill="#000000" stroke="none">
<path d="M920 3933 c0 -18 -6 -23 -25 -23 -14 0 -25 -3 -25 -7 0 -15 37 -63
43 -58 4 3 4 2 1 -2 -3 -5 -27 -13 -52 -20 l-47 -11 53 5 c33 4 52 2 52 -5 0
-10 55 0 68 12 6 6 -19 59 -48 101 -18 28 -20 28 -20 8z"/>
<path d="M1343 3923 c9 -2 23 -2 30 0 6 3 -1 5 -18 5 -16 0 -22 -2 -12 -5z"/>
<path d="M1260 3910 c-20 -6 -21 -8 -5 -8 11 0 31 4 45 8 20 6 21 8 5 8 -11 0
-31 -4 -45 -8z"/>
<path d="M1398 3913 c6 -2 18 -2 25 0 6 3 1 5 -13 5 -14 0 -19 -2 -12 -5z"/>
<path d="M1458 3903 c6 -2 18 -2 25 0 6 3 1 5 -13 5 -14 0 -19 -2 -12 -5z"/>
<path d="M1208 3893 c7 -3 16 -2 19 1 4 3 -2 6 -13 5 -11 0 -14 -3 -6 -6z"/>
<path d="M1072 3873 c-40 -9 -71 -18 -68 -20 5 -5 157 25 164 32 8 7 -15 4
-96 -12z"/>
<path d="M750 3800 c-11 -7 -5 -8 20 -4 43 8 51 14 19 14 -13 0 -31 -5 -39
-10z"/>
<path d="M628 3773 c6 -2 18 -2 25 0 6 3 1 5 -13 5 -14 0 -19 -2 -12 -5z"/>
<path d="M1291 3716 c-9 -11 -6 -18 16 -33 34 -23 122 -57 130 -50 9 10 -29
64 -57 81 -34 20 -74 21 -89 2z"/>
<path d="M1820 3718 c0 -7 4 -29 10 -48 l9 -35 -19 23 c-10 12 -20 28 -23 35
-2 6 -8 9 -12 5 -4 -4 5 -22 19 -41 27 -35 23 -53 -8 -41 -9 3 -16 1 -16 -6 0
-7 12 -10 33 -8 l32 3 -2 -54 c-3 -67 -33 -131 -81 -172 -21 -17 -29 -29 -19
-26 24 9 21 0 -4 -14 -17 -9 -20 -8 -14 2 6 9 3 10 -11 5 -10 -4 -34 -10 -51
-13 -31 -5 -33 -9 -33 -44 l0 -38 44 13 c24 7 64 28 90 45 38 27 46 37 41 54
-5 16 -4 18 3 8 8 -11 13 -9 25 10 30 47 40 101 34 175 -5 57 -3 74 8 84 8 7
15 17 15 23 0 6 -7 2 -15 -9 -17 -22 -19 -7 -5 30 6 16 6 27 0 31 -6 4 -10 -5
-10 -19 0 -14 -4 -28 -10 -31 -6 -4 -10 6 -10 24 0 16 -4 33 -10 36 -5 3 -10
0 -10 -7z"/>
<path d="M2885 3678 c-11 -6 -32 -22 -48 -36 -20 -19 -24 -28 -15 -34 9 -5 8
-8 -4 -8 -10 0 -18 -4 -18 -10 0 -13 3 -13 35 2 26 12 36 31 10 22 -18 -7 -20
7 -3 24 13 13 32 16 24 4 -2 -4 -1 -13 3 -20 6 -10 15 -9 42 3 30 14 25 15
-21 4 -26 -7 -16 26 12 40 30 14 74 7 49 -8 -8 -5 -9 -11 -3 -15 11 -7 25 21
16 35 -7 12 -55 11 -79 -3z"/>
<path d="M3116 3681 c-12 -18 6 -40 45 -55 48 -20 45 -20 54 2 5 13 3 14 -6 5
-13 -13 -51 -2 -75 22 -14 13 -13 15 11 15 38 0 92 -25 105 -49 8 -16 8 -21
-2 -21 -9 0 -9 -3 2 -10 36 -23 33 6 -4 49 -35 39 -116 65 -130 42z"/>
<path d="M1046 3654 c-27 -27 -46 -79 -38 -101 7 -21 112 77 112 104 0 32 -40
31 -74 -3z"/>
<path d="M3220 3609 c0 -5 5 -7 10 -4 6 3 10 8 10 11 0 2 -4 4 -10 4 -5 0 -10
-5 -10 -11z"/>
<path d="M4987 3602 c-34 -37 -34 -113 -1 -146 21 -22 67 -20 88 3 9 10 19 34
22 53 6 33 4 35 -26 42 -29 5 -32 9 -28 36 4 25 1 30 -17 30 -12 0 -29 -8 -38
-18z"/>
<path d="M4704 3562 c-36 -24 -46 -115 -16 -152 40 -50 112 -14 112 56 0 27
-4 34 -20 34 -26 0 -46 36 -29 56 9 11 7 14 -12 14 -13 0 -29 -4 -35 -8z"/>
<path d="M1344 3532 c-40 -26 -46 -120 -11 -156 46 -46 107 -8 107 66 0 29 -3
36 -15 32 -24 -9 -47 16 -40 43 4 18 1 23 -12 23 -10 0 -23 -4 -29 -8z"/>
<path d="M1077 3470 c-74 -59 -17 -203 63 -160 23 12 40 48 40 85 0 18 -6 24
-27 27 -25 3 -28 7 -27 36 2 38 -12 41 -49 12z"/>
<path d="M2860 3418 c-26 -29 -27 -91 -1 -117 33 -33 83 -5 93 51 4 22 1 28
-16 30 -16 2 -21 10 -21 31 1 34 -25 37 -55 5z"/>
<path d="M3146 3418 c-18 -26 -21 -80 -6 -109 14 -25 61 -25 83 -1 25 27 22
68 -4 75 -17 5 -20 11 -17 31 4 22 2 26 -18 26 -12 0 -30 -10 -38 -22z"/>
<path d="M671 3334 c0 -11 3 -14 6 -6 3 7 2 16 -1 19 -3 4 -6 -2 -5 -13z"/>
<path d="M1388 3333 c7 -3 16 -2 19 1 4 3 -2 6 -13 5 -11 0 -14 -3 -6 -6z"/>
<path d="M2254 3100 c0 -124 2 -174 3 -112 2 61 2 163 0 225 -1 61 -3 11 -3
-113z"/>
<path d="M4983 3281 c-16 -26 -69 -34 -105 -17 -27 14 -30 14 -37 -7 -11 -30
-2 -56 26 -74 23 -15 25 -15 56 19 18 19 49 40 69 47 34 11 36 14 25 32 -15
24 -19 24 -34 0z"/>
<path d="M1364 3237 c1 -15 6 -30 9 -34 11 -10 8 30 -3 47 -7 11 -8 8 -6 -13z"/>
<path d="M1180 3193 c0 -24 3 -33 9 -25 7 12 4 62 -5 62 -2 0 -4 -17 -4 -37z"/>
<path d="M2994 3145 c-8 -44 2 -73 18 -57 15 15 62 16 53 1 -4 -6 -13 -8 -21
-5 -7 3 -16 1 -19 -4 -9 -14 39 -12 53 2 13 13 16 56 6 82 -4 11 -19 16 -45
16 -36 0 -39 -2 -45 -35z"/>
<path d="M768 3080 c-55 -110 -45 -206 29 -271 33 -29 41 -31 94 -27 42 3 66
11 92 31 28 21 42 26 69 21 25 -4 29 -3 18 5 -12 8 -8 11 18 11 17 0 32 5 32
10 0 6 -12 10 -27 10 l-28 0 30 25 c17 13 24 24 17 25 -7 0 -20 -7 -28 -15
-22 -22 -40 -19 -21 3 19 21 22 42 7 42 -5 0 -10 -5 -10 -10 0 -6 -9 -20 -20
-32 -17 -19 -20 -19 -20 -5 0 9 -5 17 -11 17 -7 0 -9 -12 -5 -35 7 -35 6 -36
-40 -56 -112 -50 -200 27 -173 151 6 26 9 72 7 101 l-3 54 -27 -55z"/>
<path d="M2597 3023 c-11 -10 -8 -33 6 -46 19 -19 100 -83 116 -92 9 -5 12 -4
7 3 -3 5 -1 13 4 15 6 3 5 4 -2 3 -7 -2 -21 1 -32 6 -15 8 -16 12 -5 20 11 8
11 9 -3 5 -21 -7 -94 55 -84 71 4 7 12 12 17 12 6 0 7 -5 3 -12 -4 -6 -3 -8 3
-5 6 4 22 -5 37 -20 14 -14 29 -24 32 -21 6 6 -69 68 -83 68 -5 0 -13 -3 -16
-7z"/>
<path d="M3425 3004 c-16 -14 -24 -23 -17 -19 20 10 14 0 -20 -31 -32 -28 -32
-28 -9 -1 57 64 -7 17 -174 -127 -110 -96 -125 -110 -102 -103 24 9 21 0 -4
-14 -15 -8 -19 -8 -15 0 4 6 1 11 -8 11 -8 0 -18 4 -21 10 -4 6 1 7 12 3 15
-6 15 -5 3 8 -15 17 -47 22 -55 9 -3 -5 3 -11 14 -15 27 -8 36 -35 11 -35 -11
0 -20 -5 -20 -10 0 -6 -7 -10 -16 -8 -10 2 -18 -3 -20 -10 -1 -7 0 -8 3 -2 2
5 8 8 13 5 4 -3 21 2 36 10 37 19 55 5 44 -36 -5 -17 -5 -29 1 -29 8 0 14 39
10 63 -2 11 41 46 57 47 6 0 12 5 12 10 0 6 5 10 11 10 10 0 78 47 89 62 3 3
17 10 33 13 15 4 24 12 21 17 -4 6 2 7 17 3 22 -7 22 -7 6 9 -20 21 -22 27 -4
20 8 -3 46 21 86 52 55 43 71 61 69 77 -4 31 -28 31 -63 1z"/>
<path d="M703 2945 c0 -33 2 -45 4 -27 2 18 2 45 0 60 -2 15 -4 0 -4 -33z"/>
<path d="M2713 2941 c0 -11 4 -18 8 -16 9 6 74 -45 72 -56 -2 -5 1 -9 7 -9 5
0 22 -11 37 -25 48 -42 91 -75 97 -75 4 0 -6 11 -21 25 -15 13 -37 33 -48 43
-11 10 -50 44 -87 76 -53 45 -67 53 -65 37z"/>
<path d="M2465 2890 c55 -4 133 -15 174 -24 41 -9 76 -14 79 -12 10 11 -156
38 -248 41 l-105 4 100 -9z"/>
<path d="M3598 2893 c23 -2 61 -2 85 0 23 2 4 4 -43 4 -47 0 -66 -2 -42 -4z"/>
<path d="M3422 2873 c-96 -22 -68 -26 34 -4 49 10 76 19 59 19 -16 0 -58 -7
-93 -15z"/>
<path d="M1359 2783 c-13 -3 -17 -27 -22 -141 -3 -75 -8 -145 -12 -154 -7 -17
2 -18 100 -18 130 0 135 12 20 53 -44 15 -81 29 -83 32 -2 2 3 35 12 74 17 73
21 162 9 160 -5 -1 -15 -3 -24 -6z"/>
<path d="M702 2755 c0 -16 2 -22 5 -12 2 9 2 23 0 30 -3 6 -5 -1 -5 -18z"/>
<path d="M2860 2690 c0 -35 2 -61 4 -59 8 8 10 108 3 116 -4 3 -7 -22 -7 -57z"/>
<path d="M2938 2739 c-10 -5 -18 -16 -18 -24 0 -8 -6 -13 -12 -11 -7 1 -10 1
-5 -1 4 -3 7 -14 7 -26 0 -20 0 -20 -15 -1 -14 18 -15 17 -4 -8 9 -20 8 -41
-3 -92 -8 -36 -12 -66 -9 -66 4 0 17 48 28 106 12 59 24 109 27 112 3 3 14 -2
24 -11 10 -10 23 -17 28 -17 4 0 -2 7 -14 16 -12 8 -20 20 -17 25 8 11 5 11
-17 -2z"/>
<path d="M3213 2715 c0 -22 2 -30 4 -17 2 12 2 30 0 40 -3 9 -5 -1 -4 -23z"/>
<path d="M1124 2732 c-7 -4 -14 -62 -18 -142 -3 -74 -9 -147 -12 -161 -6 -26
-4 -27 55 -34 66 -8 161 2 161 16 0 12 -23 23 -105 49 -38 13 -71 24 -73 26
-2 1 4 36 12 78 28 132 20 195 -20 168z"/>
<path d="M3162 2695 c0 -16 2 -22 5 -12 2 9 2 23 0 30 -3 6 -5 -1 -5 -18z"/>
<path d="M3055 2670 c-3 -5 -1 -10 4 -10 6 0 11 5 11 10 0 6 -2 10 -4 10 -3 0
-8 -4 -11 -10z"/>
<path d="M3024 2657 c-2 -7 -1 -24 4 -37 l9 -24 12 23 c7 12 10 25 7 29 -3 3
-6 0 -6 -6 0 -7 -5 -12 -11 -12 -6 0 -8 9 -4 20 7 22 -3 28 -11 7z"/>
<path d="M3218 2620 c-1 -28 0 -59 4 -68 4 -9 7 13 7 51 1 79 -6 89 -11 17z"/>
<path d="M3172 2640 c0 -14 2 -19 5 -12 2 6 2 18 0 25 -3 6 -5 1 -5 -13z"/>
<path d="M2990 2635 c0 -8 4 -15 10 -15 5 0 7 7 4 15 -4 8 -8 15 -10 15 -2 0
-4 -7 -4 -15z"/>
<path d="M2853 2580 c0 -25 2 -35 4 -22 2 12 2 32 0 45 -2 12 -4 2 -4 -23z"/>
<path d="M3183 2578 c3 -13 11 -48 17 -79 l13 -56 56 -18 c71 -23 131 -34 131
-25 0 14 -49 52 -62 47 -8 -4 -7 -6 5 -6 11 -1 15 -6 11 -13 -4 -7 -3 -8 4 -4
7 4 12 2 12 -4 0 -8 -11 -9 -32 -5 -53 12 -78 24 -78 37 0 9 -3 8 -10 -2 -8
-12 -10 -12 -10 5 0 15 -2 17 -9 6 -6 -10 -14 10 -26 63 -9 42 -19 76 -22 76
-3 0 -3 -10 0 -22z"/>
<path d="M2799 2499 c-61 -44 -62 -45 -31 -43 15 0 27 6 27 12 0 6 15 23 34
37 50 36 22 31 -30 -6z"/>
<path d="M3257 2509 c12 -15 73 -53 73 -46 0 2 -19 17 -42 32 -24 16 -38 22
-31 14z"/>
<path d="M2867 2480 c-3 -11 -1 -20 4 -20 5 0 9 9 9 20 0 11 -2 20 -4 20 -2 0
-6 -9 -9 -20z"/>
<path d="M2702 2425 c-23 -26 -31 -48 -11 -28 6 6 17 9 24 7 14 -6 160 35 153
42 -3 2 -18 0 -34 -5 -98 -30 -115 -34 -120 -28 -4 4 -1 13 6 22 21 25 5 17
-18 -10z"/>
<path d="M3476 1928 c-8 -29 -20 -85 -26 -125 -6 -39 -13 -80 -15 -90 -2 -10
-4 -26 -4 -35 -2 -30 -19 -20 -41 21 -24 48 -56 74 -118 97 -26 9 -62 32 -80
50 -48 47 -131 57 -146 17 -9 -21 22 -53 51 -53 12 0 23 -5 23 -11 0 -6 -9 -9
-20 -6 -10 3 -18 2 -17 -3 1 -4 -17 -26 -41 -49 -35 -34 -46 -40 -58 -30 -10
8 -14 8 -14 0 0 -20 -18 -12 -26 11 -7 24 -28 48 -41 48 -10 1 -53 36 -53 44
0 3 11 6 25 6 63 0 99 47 54 71 -28 14 -86 -2 -126 -35 -15 -13 -48 -26 -71
-30 -63 -10 -115 -39 -144 -83 -69 -100 -55 -221 34 -297 54 -47 99 -59 169
-46 113 22 179 101 179 217 0 23 4 44 10 48 5 3 7 -12 3 -39 -16 -133 90 -252
219 -248 63 2 122 27 157 67 16 19 32 31 36 27 3 -3 3 1 0 10 -4 9 -2 19 4 23
13 7 13 9 1 -124 -5 -57 -10 -157 -11 -222 -1 -104 -3 -119 -17 -119 -33 1
-59 34 -55 67 5 33 -12 52 -30 34 -7 -7 -13 -4 -21 11 -15 29 -36 35 -36 10 0
-15 -5 -19 -20 -15 -26 7 -27 -22 -2 -36 15 -9 15 -10 -4 -11 -12 0 -24 -7
-28 -15 -4 -11 1 -15 19 -15 19 0 23 -4 18 -17 -5 -14 -1 -15 35 -10 29 5 45
3 55 -8 8 -8 30 -23 48 -33 19 -10 35 -28 37 -40 3 -19 -1 -22 -30 -22 -18 0
-157 -5 -308 -10 -151 -5 -326 -10 -388 -11 -68 -1 -112 -5 -110 -11 2 -5 66
-34 143 -64 123 -47 149 -54 212 -54 l72 0 6 -47 c3 -27 10 -67 15 -90 13 -56
12 -73 -2 -77 -76 -23 -158 -60 -155 -70 2 -7 40 -12 105 -14 85 -2 102 0 102
12 0 8 -5 61 -11 116 -6 56 -8 117 -5 136 l7 34 94 0 c107 0 94 13 113 -110 5
-36 13 -72 16 -81 6 -13 -9 -22 -71 -44 -136 -48 -134 -65 7 -65 l98 0 -5 150
-6 150 105 0 c58 0 153 3 211 6 l106 7 -6 91 c-12 189 22 622 68 864 19 100
20 136 4 120 -14 -14 -68 -354 -85 -533 -5 -60 -10 -203 -10 -316 l0 -206 -92
-7 c-50 -3 -138 -6 -195 -6 -93 0 -104 2 -101 18 5 27 -52 30 -59 3 -4 -17
-15 -20 -96 -23 -79 -3 -91 -1 -95 15 -6 25 -58 23 -65 -3 -4 -17 -14 -20 -61
-20 -41 0 -82 11 -163 42 l-108 43 125 7 c69 4 241 10 383 14 l257 6 0 39 c0
37 2 39 30 39 81 0 140 76 140 179 0 75 -36 175 -53 145 -6 -10 -7 -52 -3
-101 9 -116 -17 -171 -88 -189 l-29 -7 7 169 c7 160 18 306 32 401 l6 43 57
-6 c124 -14 187 -64 156 -124 -19 -36 -19 -40 0 -40 23 0 40 79 24 109 -19 33
-74 59 -150 72 -35 6 -69 12 -75 14 -10 3 9 137 42 293 11 54 -14 37 -30 -20z
m-611 -162 c110 -84 109 -227 -3 -307 -39 -28 -55 -33 -102 -34 -72 0 -126 27
-164 84 -52 77 -46 164 16 230 44 47 82 62 154 58 49 -2 69 -8 99 -31z m412
-1 c43 -18 80 -57 99 -102 42 -99 -20 -224 -124 -253 -49 -13 -62 -13 -113 5
-82 29 -129 94 -129 180 0 134 140 223 267 170z"/>
<path d="M2838 1702 c-2 -19 -9 -28 -25 -30 -29 -4 -31 -49 -5 -82 46 -57 118
32 82 100 -6 11 -19 24 -30 30 -16 9 -19 6 -22 -18z"/>
<path d="M3126 1663 c-3 -4 -24 -6 -46 -5 -39 3 -40 2 -40 -31 0 -60 51 -86
90 -45 29 32 26 111 -4 81z"/>
<path d="M4722 1943 l-243 -3 5 -68 c8 -94 28 -642 26 -727 0 -38 2 -118 6
-177 l7 -108 56 -21 c31 -11 72 -23 91 -25 29 -3 26 -1 -13 10 -26 8 -54 19
-62 26 -8 6 -20 8 -27 4 -10 -5 -10 -4 -2 5 7 8 19 9 35 4 27 -10 704 -11 713
-2 3 3 23 249 43 547 l38 542 -215 -2 c-118 -2 -324 -4 -458 -5z m655 -135
c-3 -7 -5 -2 -5 12 0 14 2 19 5 13 2 -7 2 -19 0 -25z m-866 -108 c-5 -25 -9
-35 -10 -24 -1 28 11 92 16 79 1 -6 -1 -30 -6 -55z m439 -95 c0 -5 -5 -3 -10
5 -5 8 -10 20 -10 25 0 6 5 3 10 -5 5 -8 10 -19 10 -25z m-283 9 c-3 -3 -12
-4 -19 -1 -8 3 -5 6 6 6 11 1 17 -2 13 -5z m345 -22 c13 -5 15 -11 8 -22 -15
-24 -12 -87 6 -104 35 -36 80 -12 99 52 5 17 2 22 -13 22 -19 0 -38 27 -27 38
2 3 25 -3 50 -12 38 -15 45 -22 45 -45 0 -16 -5 -42 -11 -59 -8 -25 -17 -32
-49 -37 -22 -4 -51 -15 -64 -26 -32 -25 -88 -15 -92 16 -1 11 -8 39 -13 63 -8
31 -8 55 -1 83 11 39 24 46 62 31z m-96 -13 c5 -8 9 -8 14 1 4 7 8 1 8 -15 0
-19 -3 -23 -9 -14 -5 8 -7 -12 -5 -48 1 -34 -1 -60 -5 -58 -10 7 -20 -25 -12
-38 3 -7 3 -9 -2 -5 -4 4 -20 0 -34 -8 -25 -15 -29 -15 -62 5 -19 11 -47 21
-62 21 -23 0 -31 7 -43 35 -23 57 -19 89 15 102 28 10 29 10 34 -29 6 -47 31
-78 62 -78 31 0 48 23 49 67 1 33 -2 37 -24 38 -15 0 -26 7 -28 18 -3 14 4 17
47 17 27 0 53 -5 57 -11z m-236 -29 c0 -5 -8 -10 -17 -10 -15 0 -16 2 -3 10
19 12 20 12 20 0z m-22 -45 c-3 -3 -9 2 -12 12 -6 14 -5 15 5 6 7 -7 10 -15 7
-18z m-141 -57 c-3 -7 -5 -2 -5 12 0 14 2 19 5 13 2 -7 2 -19 0 -25z m140 0
c-3 -8 -6 -5 -6 6 -1 11 2 17 5 13 3 -3 4 -12 1 -19z m432 -67 c10 -7 7 -9
-12 -8 -14 1 -23 5 -20 10 6 9 15 9 32 -2z m-259 -16 c14 -8 21 -14 15 -14 -5
0 -21 6 -35 14 -14 8 -20 14 -15 14 6 0 21 -6 35 -14z m200 -5 c-8 -5 -22 -9
-30 -9 -10 0 -8 3 5 9 27 12 43 12 25 0z m85 0 c-3 -5 -12 -10 -18 -10 -7 0
-6 4 3 10 19 12 23 12 15 0z m-35 -20 c8 -5 11 -10 5 -10 -5 0 -17 5 -25 10
-8 5 -10 10 -5 10 6 0 17 -5 25 -10z m260 -42 c0 -12 -3 -18 -7 -14 -10 10
-11 46 -1 40 4 -3 8 -15 8 -26z m-813 -10 c-3 -7 -5 -2 -5 12 0 14 2 19 5 13
2 -7 2 -19 0 -25z m801 -149 c-3 -8 -7 -3 -11 10 -4 17 -3 21 5 13 5 -5 8 -16
6 -23z m-801 -1 c-3 -8 -6 -5 -6 6 -1 11 2 17 5 13 3 -3 4 -12 1 -19z m0 -90
c-3 -7 -5 -2 -5 12 0 14 2 19 5 13 2 -7 2 -19 0 -25z m10 -40 c-3 -8 -6 -5 -6
6 -1 11 2 17 5 13 3 -3 4 -12 1 -19z m18 -137 c-6 -5 -25 10 -25 20 0 5 6 4
14 -3 8 -7 12 -15 11 -17z m233 22 c-21 -2 -57 -2 -80 0 -24 2 -7 4 37 4 44 0
63 -2 43 -4z m130 0 c-10 -2 -26 -2 -35 0 -10 3 -2 5 17 5 19 0 27 -2 18 -5z"/>
<path d="M5470 1925 c19 -7 47 -14 63 -14 33 -1 33 6 11 -284 -16 -220 -30
-281 -74 -317 -11 -10 -19 -33 -22 -67 l-5 -51 35 5 35 6 -6 -69 c-4 -38 -9
-109 -12 -159 -3 -49 -8 -105 -11 -124 l-5 -33 -283 4 c-155 3 -291 1 -302 -3
-16 -7 -17 -8 -2 -8 20 -1 23 -13 38 -124 15 -118 18 -110 -58 -135 -67 -22
-112 -46 -102 -55 6 -6 98 -11 163 -9 l48 2 -7 160 -7 160 27 0 28 0 -7 -160
-8 -160 44 -2 c60 -2 163 3 169 9 10 10 -37 34 -102 54 -78 24 -74 13 -55 164
l12 90 220 5 220 5 14 195 c8 107 19 198 24 201 5 4 37 12 71 19 125 24 136
28 136 58 0 15 -11 88 -25 162 -20 106 -29 139 -46 153 -30 25 -56 22 -61 -7
-7 -34 5 -50 30 -42 23 8 21 13 42 -124 14 -94 13 -107 -11 -113 -33 -9 -65 8
-79 43 -7 17 -22 37 -33 45 -19 13 -19 16 -3 242 9 125 16 243 16 261 l0 32
-77 -1 c-76 -1 -77 -1 -43 -14z"/>
<path d="M2331 1728 c-1 -16 -9 -33 -21 -40 -24 -15 -26 -36 -5 -44 11 -5 15
-23 15 -78 0 -121 51 -203 155 -252 66 -31 72 -30 77 11 4 31 1 36 -21 42 -64
15 -130 64 -157 115 -8 15 -19 50 -25 77 -9 43 -8 55 8 81 13 22 15 33 6 38
-6 4 -16 23 -21 42 -10 33 -10 33 -11 8z"/>
<path d="M4313 1610 c-23 -9 -25 -18 -63 -224 -14 -75 -17 -113 -10 -120 6 -6
64 -22 130 -36 l120 -27 -1 61 c0 87 -11 137 -32 150 -15 9 -22 6 -40 -17 -12
-15 -31 -39 -43 -54 -15 -19 -29 -26 -53 -25 -18 0 -34 2 -36 4 -1 2 5 55 14
118 l17 115 27 -3 c25 -3 27 0 27 33 0 37 -12 43 -57 25z"/>
<path d="M930 1588 c-19 -11 -46 -24 -60 -28 -23 -7 -23 -8 -6 -15 13 -6 29
-3 48 8 15 9 41 25 57 34 25 15 35 16 63 6 30 -11 31 -11 14 2 -28 21 -75 18
-116 -7z"/>
<path d="M1206 1562 c-2 -4 10 -6 28 -4 23 3 46 -5 81 -27 48 -30 95 -34 95
-9 0 6 -7 7 -16 4 -8 -3 -35 5 -58 19 -42 24 -119 35 -130 17z"/>
<path d="M961 1524 c-27 -34 -28 -103 -3 -134 40 -49 111 -13 112 58 0 25 -4
32 -20 32 -25 0 -41 30 -29 53 17 29 -36 22 -60 -9z"/>
<path d="M1242 1509 c-36 -13 -57 -74 -42 -121 27 -93 130 -63 130 37 0 17 -4
23 -14 19 -19 -7 -49 25 -43 47 6 24 -2 29 -31 18z"/>
<path d="M2879 1417 c-21 -16 -18 -59 5 -82 18 -18 110 -33 138 -22 7 2 17 5
22 5 5 0 15 15 23 33 12 28 11 35 -3 58 -17 25 -17 25 -25 4 -15 -40 -123 -42
-137 -3 -6 15 -10 16 -23 7z"/>
<path d="M3098 1343 c6 -2 18 -2 25 0 6 3 1 5 -13 5 -14 0 -19 -2 -12 -5z"/>
<path d="M2944 1284 c3 -9 6 -18 6 -20 0 -3 9 0 20 6 28 15 25 30 -6 30 -20 0
-25 -4 -20 -16z"/>
</g>
</svg>
