<?xml version="1.0" standalone="no"?>
<!DOCTYPE svg PUBLIC "-//W3C//DTD SVG 20010904//EN"
 "http://www.w3.org/TR/2001/REC-SVG-20010904/DTD/svg10.dtd">
<svg version="1.0" xmlns="http://www.w3.org/2000/svg"
 width="460.000000pt" height="512.000000pt" viewBox="0 0 460.000000 512.000000"
 preserveAspectRatio="xMidYMid meet">

<g transform="translate(0.000000,512.000000) scale(0.100000,-0.100000)"
fill="#000000" stroke="none">
<path d="M1642 4309 c-43 -21 -73 -62 -71 -96 0 -15 2 -14 11 5 6 12 27 32 47
45 32 19 50 22 146 22 93 0 110 2 113 16 7 36 -178 42 -246 8z"/>
<path d="M2060 4272 c0 -28 1 -28 93 -41 50 -7 265 -39 477 -72 212 -32 395
-59 407 -59 12 0 26 -7 30 -15 7 -12 15 -9 42 19 l33 34 -29 6 c-40 8 -386 59
-723 107 -157 21 -295 42 -307 44 -20 5 -23 1 -23 -23z"/>
<path d="M1769 3731 c-100 -39 -163 -101 -211 -206 -31 -70 -31 -187 1 -269
47 -118 167 -206 304 -222 103 -12 250 49 312 130 32 42 75 136 75 164 0 17 6
22 28 22 l28 0 0 -82 c1 -148 73 -269 201 -333 53 -27 67 -30 158 -30 121 0
167 18 249 95 206 194 118 533 -156 606 -73 19 -128 17 -200 -7 -102 -34 -188
-108 -219 -187 -8 -20 -14 -23 -42 -17 -39 9 -43 15 -51 74 -13 100 -117 221
-222 260 -71 27 -189 28 -255 2z m256 -50 c107 -47 175 -147 183 -267 5 -85
-7 -130 -55 -201 -135 -202 -445 -173 -549 50 -29 63 -33 168 -8 240 29 85
127 174 219 198 51 14 157 4 210 -20z m782 -142 c71 -34 116 -81 150 -157 22
-46 24 -65 21 -135 -4 -99 -30 -157 -98 -221 -191 -179 -504 -58 -527 204 -15
160 90 303 245 336 76 16 134 8 209 -27z"/>
<path d="M1902 3559 c-50 -15 -116 -86 -131 -141 -35 -124 54 -250 185 -263
l49 -4 -50 12 c-65 16 -105 41 -134 82 -68 100 -35 232 72 284 89 43 196 14
248 -68 30 -47 39 -49 15 -3 -46 89 -152 130 -254 101z"/>
<path d="M2173 3370 c0 -25 2 -35 4 -22 2 12 2 32 0 45 -2 12 -4 2 -4 -23z"/>
<path d="M2012 3319 c-62 -23 -44 -109 23 -109 28 0 38 5 46 24 24 52 -18 104
-69 85z m8 -35 c0 -17 -22 -14 -28 4 -2 7 3 12 12 12 9 0 16 -7 16 -16z"/>
<path d="M2129 3233 c-13 -16 -12 -17 4 -4 16 13 21 21 13 21 -2 0 -10 -8 -17
-17z"/>
<path d="M2086 3195 c-11 -8 -15 -15 -9 -15 6 0 16 7 23 15 16 19 11 19 -14 0z"/>
<path d="M2030 3170 c-23 -7 -23 -8 -3 -9 12 -1 25 4 28 9 3 6 5 10 3 9 -2 -1
-14 -5 -28 -9z"/>
<path d="M2454 3421 c-106 -65 -107 -223 -2 -277 25 -13 23 -9 -16 29 -44 41
-46 46 -46 99 0 41 6 64 23 89 41 62 125 86 187 54 17 -9 30 -13 30 -11 0 3
-13 12 -30 21 -40 21 -108 19 -146 -4z"/>
<path d="M2486 3228 c-15 -21 -9 -49 15 -63 18 -11 57 4 64 25 16 50 -48 82
-79 38z m24 -8 c0 -5 -4 -10 -10 -10 -5 0 -10 5 -10 10 0 6 5 10 10 10 6 0 10
-4 10 -10z"/>
<path d="M2498 3123 c7 -3 16 -2 19 1 4 3 -2 6 -13 5 -11 0 -14 -3 -6 -6z"/>
<path d="M2538 3123 c6 -2 18 -2 25 0 6 3 1 5 -13 5 -14 0 -19 -2 -12 -5z"/>
<path d="M2510 3723 c-24 -9 -50 -35 -50 -50 0 -12 4 -11 22 1 12 9 42 16 65
16 48 0 57 15 17 30 -28 11 -32 11 -54 3z"/>
<path d="M2110 3702 c0 -4 15 -16 34 -26 18 -10 39 -29 46 -42 17 -30 30 -31
30 -1 -1 26 -17 49 -47 65 -25 14 -63 16 -63 4z"/>
<path d="M1267 3159 c-177 -202 -159 -398 57 -630 50 -54 104 -114 120 -134
16 -20 46 -46 67 -58 40 -23 43 -29 54 -124 l7 -53 36 0 c93 0 294 -48 487
-117 55 -19 107 -37 116 -40 13 -4 17 8 23 74 3 43 15 179 26 303 11 123 20
237 20 253 0 26 -8 32 -122 87 -209 99 -501 184 -700 203 -53 5 -55 2 -32 -51
8 -20 24 -68 34 -106 21 -74 16 -99 -28 -139 -19 -17 -21 -16 -64 32 -58 64
-89 130 -95 202 -6 57 2 80 58 179 15 27 19 50 17 100 -4 85 -20 89 -81 19z
m254 -486 c8 -19 8 -40 1 -66 -8 -33 -7 -39 12 -52 11 -8 39 -15 61 -15 64 0
85 -9 85 -36 0 -20 -8 -26 -45 -36 l-45 -12 44 -13 c44 -13 65 -38 47 -56 -5
-5 -32 -7 -61 -6 -38 3 -47 1 -35 -6 45 -27 60 -44 48 -56 -34 -34 -171 45
-210 121 -36 72 -28 145 20 179 10 7 25 29 33 47 17 41 31 43 45 7z"/>
<path d="M2120 3050 c0 -58 58 -120 113 -120 34 0 82 34 97 69 14 35 4 56 -14
27 -29 -50 -54 -69 -85 -69 -39 0 -71 29 -80 74 -7 37 -31 52 -31 19z"/>
<path d="M3005 2970 c-9 -68 2 -80 77 -80 l59 0 -18 31 c-19 33 -87 99 -102
99 -5 0 -12 -23 -16 -50z"/>
<path d="M2810 2733 c-111 -9 -374 -63 -391 -81 -4 -4 -14 -79 -23 -167 -9
-88 -21 -200 -26 -250 -18 -167 -23 -225 -19 -225 2 0 36 9 74 20 141 41 257
53 466 48 l197 -4 11 52 c8 35 18 54 29 57 9 2 -16 1 -55 -1 -62 -4 -74 -2
-79 13 -8 21 11 35 49 35 15 0 27 5 27 10 0 6 -8 10 -19 10 -10 0 -32 5 -50
11 -63 22 -24 70 46 56 25 -5 24 -3 -12 27 -28 24 -37 37 -32 51 6 15 14 16
50 10 23 -4 62 -8 87 -9 44 -1 45 0 51 36 6 39 33 88 49 88 6 0 10 -15 10 -32
0 -18 9 -46 20 -63 11 -16 20 -25 20 -20 -1 6 -7 19 -15 29 -8 11 -15 34 -15
52 0 20 -6 37 -16 42 -14 8 -12 20 24 103 l40 94 -46 7 c-48 6 -370 7 -452 1z"/>
<path d="M3292 2370 c0 -14 2 -19 5 -12 2 6 2 18 0 25 -3 6 -5 1 -5 -13z"/>
<path d="M3270 2300 c-7 -17 -31 -47 -54 -67 -22 -19 -32 -31 -21 -25 38 20
105 105 92 118 -2 3 -10 -9 -17 -26z"/>
<path d="M629 1828 c-90 -24 -123 -123 -61 -179 18 -16 62 -37 102 -49 39 -12
74 -28 77 -36 9 -24 -17 -44 -58 -44 -30 0 -42 6 -59 30 -17 23 -29 30 -56 30
-43 0 -52 -20 -31 -66 44 -91 237 -101 282 -13 22 42 19 94 -7 123 -14 15 -52
34 -97 49 -83 26 -108 49 -77 73 29 21 64 17 90 -11 17 -18 34 -25 60 -25 32
0 36 3 36 26 0 34 -47 79 -96 93 -45 13 -56 12 -105 -1z"/>
<path d="M2948 1828 c-21 -5 -51 -25 -68 -44 -30 -34 -30 -36 -30 -148 0 -101
2 -116 22 -141 64 -82 230 -69 273 21 22 47 21 198 -3 244 -30 60 -115 90
-194 68z m105 -100 c13 -15 17 -38 17 -92 0 -88 -16 -116 -65 -116 -56 0 -66
19 -63 123 3 86 4 92 28 104 30 15 59 8 83 -19z"/>
<path d="M3317 1826 c-50 -19 -74 -41 -88 -83 -15 -46 -7 -211 11 -240 51 -79
208 -84 268 -8 20 25 22 40 22 137 0 86 -4 116 -17 139 -32 53 -128 80 -196
55z m111 -88 c19 -16 16 -182 -4 -202 -24 -24 -80 -20 -98 6 -19 26 -22 148
-5 179 19 36 72 44 107 17z"/>
<path d="M910 1640 l0 -190 45 0 44 0 3 102 3 102 28 -52 c23 -43 33 -52 55
-52 22 0 33 10 59 53 l32 52 1 -102 0 -103 45 0 45 0 -2 188 -3 187 -41 3 -42
3 -37 -68 c-58 -104 -53 -104 -102 -13 l-44 80 -45 0 -44 0 0 -190z"/>
<path d="M1455 1818 c-3 -7 -34 -91 -70 -187 -36 -95 -65 -175 -65 -177 0 -2
20 -4 46 -4 41 0 46 3 55 30 11 30 12 30 83 30 70 0 72 -1 83 -30 10 -27 16
-30 52 -30 26 0 41 5 41 12 0 18 -120 340 -132 356 -6 6 -28 12 -50 12 -22 0
-41 -5 -43 -12z m82 -199 c5 -28 5 -29 -37 -29 -36 0 -41 2 -35 18 4 9 14 37
23 62 l16 45 13 -34 c8 -18 17 -46 20 -62z"/>
<path d="M1740 1641 l0 -191 45 0 45 0 0 150 0 150 45 0 c46 0 85 -24 85 -53
0 -20 -31 -45 -60 -49 -21 -2 -26 -9 -28 -39 -2 -28 6 -48 38 -97 42 -62 42
-62 91 -62 27 0 49 3 49 7 0 4 -18 33 -40 64 l-40 57 34 34 c44 44 53 80 35
131 -24 68 -53 81 -185 86 l-114 3 0 -191z"/>
<path d="M2100 1790 l0 -40 50 0 50 0 0 -150 0 -150 45 0 44 0 3 148 3 147 53
3 53 3 -3 37 -3 37 -147 3 -148 3 0 -41z"/>
<path d="M2460 1640 l0 -190 120 0 c164 0 200 19 200 108 0 23 -8 49 -19 63
-17 22 -17 27 -5 44 19 26 18 85 -2 114 -27 38 -74 51 -189 51 l-105 0 0 -190z
m214 94 c9 -8 16 -19 16 -23 0 -14 -23 -29 -50 -33 -21 -2 -25 -8 -25 -38 0
-32 3 -35 35 -40 31 -4 35 -8 35 -35 l0 -30 -67 -3 -68 -3 0 111 0 110 54 0
c36 0 60 -5 70 -16z"/>
<path d="M3610 1641 l0 -191 45 0 45 0 0 58 c0 45 5 63 18 76 18 15 21 13 63
-56 l44 -73 53 -3 c28 -2 52 -1 52 2 0 3 -27 50 -60 103 -33 54 -60 103 -60
110 0 7 27 41 60 76 33 36 60 70 60 76 0 7 -19 11 -49 11 -48 0 -50 -1 -112
-72 l-64 -72 -5 70 -5 69 -42 3 -43 3 0 -190z"/>
<path d="M1617 1283 c-11 -10 -8 -161 3 -168 6 -4 10 27 10 84 0 91 -1 97 -13
84z"/>
<path d="M2518 1284 c-12 -11 -10 -162 2 -169 6 -3 10 3 10 14 0 32 20 35 49
7 36 -35 49 -20 14 16 l-27 28 24 25 c33 35 16 44 -20 10 -33 -31 -37 -27 -42
38 -2 22 -6 35 -10 31z"/>
<path d="M2865 1278 c-10 -24 -1 -163 10 -163 13 0 19 155 6 168 -7 7 -12 5
-16 -5z"/>
<path d="M3060 1200 c0 -53 4 -90 10 -90 6 0 10 5 10 10 0 6 8 5 19 -2 48 -30
100 38 69 91 -11 21 -21 26 -51 25 -34 -1 -37 1 -37 27 0 16 -4 29 -10 29 -6
0 -10 -37 -10 -90z m91 -1 c15 -29 -3 -69 -31 -69 -28 0 -46 40 -31 69 7 11
20 21 31 21 11 0 24 -10 31 -21z"/>
<path d="M1313 1265 c-42 -30 -39 -108 6 -142 47 -36 121 7 121 70 0 72 -71
111 -127 72z m87 -25 c27 -27 25 -53 -4 -87 -24 -27 -26 -27 -53 -13 -21 12
-29 24 -31 52 -5 61 46 90 88 48z"/>
<path d="M1670 1270 c0 -5 5 -10 10 -10 6 0 10 5 10 10 0 6 -4 10 -10 10 -5 0
-10 -4 -10 -10z"/>
<path d="M2070 1195 l0 -85 41 0 c56 0 79 14 79 50 0 16 -5 32 -10 35 -7 4 -7
13 0 26 20 36 -4 59 -60 59 l-50 0 0 -85z m85 40 c0 -15 -8 -21 -32 -23 -30
-3 -33 -1 -33 23 0 24 3 26 33 23 24 -2 32 -8 32 -23z m11 -60 c9 -23 -16 -46
-45 -43 -20 2 -27 9 -29 31 -3 25 -1 27 33 27 23 0 38 -6 41 -15z"/>
<path d="M2739 1267 c-46 -35 -47 -101 -2 -137 31 -24 62 -26 89 -4 18 15 17
15 -15 10 -49 -9 -81 15 -81 58 0 47 29 70 76 61 34 -6 36 -5 25 9 -16 19 -69
21 -92 3z"/>
<path d="M1470 1175 c0 -37 4 -65 10 -65 6 0 10 20 10 44 0 83 57 91 62 9 4
-56 22 -65 26 -12 4 52 -13 89 -41 89 -13 0 -28 -5 -35 -12 -9 -9 -12 -9 -12
0 0 7 -4 12 -10 12 -6 0 -10 -28 -10 -65z"/>
<path d="M1670 1175 c0 -37 4 -65 10 -65 6 0 10 28 10 65 0 37 -4 65 -10 65
-6 0 -10 -28 -10 -65z"/>
<path d="M1723 1224 c-8 -21 2 -109 12 -107 6 1 12 24 15 50 4 43 8 48 30 48
23 0 25 -4 28 -52 2 -29 7 -53 13 -53 14 0 11 106 -4 118 -16 14 -88 11 -94
-4z"/>
<path d="M1876 1221 c-45 -49 9 -130 69 -103 14 7 23 16 20 22 -4 6 -13 5 -25
-3 -15 -8 -25 -9 -37 -1 -34 21 -26 34 21 34 38 0 46 3 46 18 0 24 -31 52 -57
52 -11 0 -28 -9 -37 -19z m64 -16 c11 -13 7 -15 -25 -15 -32 0 -36 2 -25 15 7
8 18 15 25 15 7 0 18 -7 25 -15z"/>
<path d="M2237 1222 c-37 -40 -10 -112 41 -112 29 0 62 34 62 65 0 54 -69 85
-103 47z m73 -22 c14 -27 4 -57 -21 -65 -25 -8 -49 11 -49 39 0 45 50 63 70
26z"/>
<path d="M2380 1220 c-39 -39 -11 -110 43 -110 32 0 57 30 57 67 0 56 -60 83
-100 43z m68 -12 c16 -16 15 -53 -3 -68 -18 -15 -52 -4 -60 20 -13 43 33 78
63 48z"/>
<path d="M2928 1234 c-16 -15 -8 -91 10 -107 44 -40 96 -1 90 67 -5 54 -23 48
-26 -7 -5 -82 -58 -74 -64 10 -2 25 -6 41 -10 37z"/>
</g>
</svg>
